<svg width="16" height="16" viewBox="0 0 16 16" fill="none" xmlns="http://www.w3.org/2000/svg">
<rect width="4.57143" height="4.57143" fill="white"/>
<rect x="11.4287" width="4.57143" height="4.57143" fill="white"/>
<rect y="5.71423" width="4.57143" height="4.57143" fill="white"/>
<rect x="11.4287" y="5.71423" width="4.57143" height="4.57143" fill="white"/>
<rect y="11.4286" width="4.57143" height="4.57143" fill="white"/>
<path d="M2.29599 14.6917C2.07107 14.6917 1.88639 14.6387 1.74193 14.5326C1.59747 14.4247 1.51976 14.2711 1.50879 14.0718H2.08205C2.08753 14.1395 2.10765 14.1888 2.14239 14.2199C2.17713 14.251 2.22193 14.2666 2.27679 14.2666C2.32616 14.2666 2.36639 14.2547 2.39747 14.2309C2.43039 14.2053 2.44685 14.1706 2.44685 14.1267C2.44685 14.07 2.42033 14.0261 2.3673 13.995C2.31427 13.9639 2.22833 13.9292 2.10947 13.8908C1.9833 13.8487 1.8809 13.8085 1.80227 13.7701C1.72547 13.7299 1.65782 13.6723 1.5993 13.5973C1.54262 13.5205 1.51427 13.4208 1.51427 13.2983C1.51427 13.174 1.54536 13.0679 1.60753 12.9802C1.6697 12.8906 1.75565 12.8229 1.86536 12.7772C1.97507 12.7315 2.09942 12.7086 2.23839 12.7086C2.4633 12.7086 2.6425 12.7616 2.77599 12.8677C2.9113 12.9719 2.98353 13.1191 2.99267 13.3093H2.40845C2.40662 13.2508 2.38833 13.2069 2.35359 13.1776C2.32067 13.1484 2.2777 13.1338 2.22467 13.1338C2.18445 13.1338 2.15153 13.1456 2.12593 13.1694C2.10033 13.1932 2.08753 13.227 2.08753 13.2709C2.08753 13.3075 2.10125 13.3395 2.12867 13.3669C2.15793 13.3925 2.19359 13.4154 2.23565 13.4355C2.2777 13.4538 2.33987 13.4775 2.42216 13.5068C2.54467 13.5488 2.64525 13.5909 2.72387 13.633C2.80433 13.6732 2.8729 13.7308 2.92959 13.8058C2.9881 13.8789 3.01736 13.9722 3.01736 14.0855C3.01736 14.2007 2.9881 14.304 2.92959 14.3955C2.8729 14.4869 2.7897 14.5591 2.67999 14.6122C2.5721 14.6652 2.4441 14.6917 2.29599 14.6917Z" fill="#222E3E"/>
<rect x="5.71436" y="11.4286" width="4.57143" height="4.57143" fill="white"/>
<path d="M7.7121 12.7543V13.8761C7.7121 13.9803 7.73587 14.0608 7.78342 14.1175C7.83279 14.1742 7.90685 14.2025 8.00559 14.2025C8.10433 14.2025 8.17839 14.1742 8.22776 14.1175C8.27896 14.059 8.30456 13.9785 8.30456 13.8761V12.7543H8.84216V13.8761C8.84216 14.0535 8.80467 14.2052 8.7297 14.3314C8.65473 14.4558 8.55233 14.5499 8.4225 14.6139C8.2945 14.6761 8.15187 14.7072 7.99462 14.7072C7.83736 14.7072 7.69656 14.6761 7.57222 14.6139C7.4497 14.5499 7.35279 14.4558 7.28147 14.3314C7.21199 14.2071 7.17725 14.0553 7.17725 13.8761V12.7543H7.7121Z" fill="#222E3E"/>
<rect x="5.71436" y="5.71423" width="4.57143" height="4.57143" fill="white"/>
<path d="M8.22971 8.97375L7.62354 8.12621V8.97375H7.08594V7.04004H7.62354V7.87387L8.22422 7.04004H8.84411L8.13371 7.9781L8.87977 8.97375H8.22971Z" fill="#222E3E"/>
<rect x="11.4287" y="11.4286" width="4.57143" height="4.57143" fill="white"/>
<path d="M13.611 12.7543C13.8139 12.7543 13.9913 12.7954 14.1431 12.8777C14.2967 12.9582 14.4146 13.0715 14.4969 13.2178C14.5792 13.3641 14.6203 13.5314 14.6203 13.7198C14.6203 13.9063 14.5783 14.0727 14.4942 14.219C14.4119 14.3652 14.2939 14.4804 14.1403 14.5646C13.9886 14.6468 13.8121 14.688 13.611 14.688H12.8457V12.7543H13.611ZM13.5698 14.2135C13.7271 14.2135 13.8505 14.1705 13.9401 14.0846C14.0297 13.9986 14.0745 13.877 14.0745 13.7198C14.0745 13.5607 14.0297 13.4382 13.9401 13.3522C13.8505 13.2644 13.7271 13.2206 13.5698 13.2206H13.3833V14.2135H13.5698Z" fill="#222E3E"/>
<rect x="5.71436" width="4.57143" height="4.57143" fill="white"/>
<path d="M7.98705 3.26311C7.80603 3.26311 7.63963 3.22106 7.48785 3.13694C7.33608 3.051 7.2154 2.93306 7.1258 2.78311C7.03803 2.63134 6.99414 2.46037 6.99414 2.2702C6.99414 2.08003 7.03803 1.90997 7.1258 1.76003C7.2154 1.60826 7.33608 1.49032 7.48785 1.4062C7.63963 1.32209 7.80603 1.28003 7.98705 1.28003C8.16991 1.28003 8.33631 1.32209 8.48625 1.4062C8.63803 1.49032 8.7578 1.60826 8.84557 1.76003C8.93334 1.90997 8.97723 2.08003 8.97723 2.2702C8.97723 2.46037 8.93334 2.63134 8.84557 2.78311C8.7578 2.93306 8.63803 3.051 8.48625 3.13694C8.33448 3.22106 8.16808 3.26311 7.98705 3.26311ZM7.98705 2.76391C8.1242 2.76391 8.23208 2.71912 8.31071 2.62952C8.39117 2.53992 8.4314 2.42014 8.4314 2.2702C8.4314 2.1166 8.39117 1.99592 8.31071 1.90814C8.23208 1.81854 8.1242 1.77374 7.98705 1.77374C7.84808 1.77374 7.73928 1.81854 7.66065 1.90814C7.58203 1.99592 7.54271 2.1166 7.54271 2.2702C7.54271 2.42197 7.58203 2.54266 7.66065 2.63226C7.73928 2.72003 7.84808 2.76391 7.98705 2.76391Z" fill="#222E3E"/>
</svg>
